<svg width="150" height="25" viewBox="0 0 150 25" fill="none" xmlns="http://www.w3.org/2000/svg">
<path d="M20.1956 24H13.9256L6.00563 10.14V24H0.0656248V0.899998H6.33562L14.2556 14.76V0.899998H20.1956V24ZM41.3811 19.05C41.3811 20.7 40.9081 21.998 39.9621 22.944C39.0381 23.868 37.7511 24.33 36.1011 24.33H28.5111C26.8611 24.33 25.5631 23.868 24.6171 22.944C23.6931 21.998 23.2311 20.7 23.2311 19.05V11.46C23.2311 9.81 23.6931 8.523 24.6171 7.599C25.5631 6.653 26.8611 6.18 28.5111 6.18H36.1011C37.7511 6.18 39.0381 6.653 39.9621 7.599C40.9081 8.523 41.3811 9.81 41.3811 11.46V19.05ZM35.6061 11.955C35.6061 11.075 35.1661 10.635 34.2861 10.635H30.3261C29.4461 10.635 29.0061 11.075 29.0061 11.955V18.555C29.0061 19.435 29.4461 19.875 30.3261 19.875H34.2861C35.1661 19.875 35.6061 19.435 35.6061 18.555V11.955ZM56.2772 24C54.1432 24.22 52.0532 24.33 50.0072 24.33C48.5112 24.33 47.3122 23.879 46.4102 22.977C45.5082 22.075 45.0572 20.876 45.0572 19.38V10.965H43.0772V6.51H45.0572L45.7172 2.55H50.8322V6.51H54.9572V10.965H50.8322V18.555C50.8322 18.885 50.9422 19.16 51.1622 19.38C51.3822 19.6 51.6572 19.71 51.9872 19.71H56.2772V24ZM78.4514 11.13L73.8314 19.38H69.2114L64.5914 11.13V24H58.6514V0.899998H64.9214L71.5214 13.11L78.1214 0.899998H84.3914V24H78.4514V11.13ZM95.0143 7.17V24H89.2393V11.625H86.7643V7.17H95.0143ZM89.2393 0.569999H95.0143V5.19H89.2393V0.569999ZM106.955 24C105.481 24.22 104.073 24.33 102.731 24.33C101.411 24.33 100.3 23.879 99.3976 22.977C98.4956 22.075 98.0446 20.876 98.0446 19.38V0.899998H103.82V18.555C103.82 18.885 103.93 19.16 104.15 19.38C104.37 19.6 104.645 19.71 104.975 19.71H106.955V24ZM114.754 17.07V24H108.979V0.899998H114.754V12.615H117.394L121.024 6.51H127.129L122.179 14.925L127.129 24H121.024L117.229 17.07H114.754ZM137.133 12.802C134.664 13.066 132.486 13.198 130.599 13.198C129.701 13.198 128.982 12.9274 128.44 12.3862C127.899 11.845 127.629 11.1256 127.629 10.228V5.674C127.629 4.684 127.906 3.9118 128.46 3.3574C129.028 2.7898 129.807 2.506 130.797 2.506H137.133V5.179H131.886C131.358 5.179 131.094 5.443 131.094 5.971V9.832C131.094 10.03 131.16 10.195 131.292 10.327C131.424 10.459 131.589 10.525 131.787 10.525C132.975 10.525 134.757 10.426 137.133 10.228V12.802ZM149.125 10.03C149.125 11.02 148.841 11.7988 148.273 12.3664C147.719 12.9208 146.947 13.198 145.957 13.198H141.403C140.413 13.198 139.634 12.9208 139.066 12.3664C138.512 11.7988 138.235 11.02 138.235 10.03V5.476C138.235 4.486 138.512 3.7138 139.066 3.1594C139.634 2.5918 140.413 2.308 141.403 2.308H145.957C146.947 2.308 147.719 2.5918 148.273 3.1594C148.841 3.7138 149.125 4.486 149.125 5.476V10.03ZM145.66 5.773C145.66 5.245 145.396 4.981 144.868 4.981H142.492C141.964 4.981 141.7 5.245 141.7 5.773V9.733C141.7 10.261 141.964 10.525 142.492 10.525H144.868C145.396 10.525 145.66 10.261 145.66 9.733V5.773Z" fill="black"/>
</svg>
